<svg height="72" xmlns="http://www.w3.org/2000/svg" xmlns:xlink="http://www.w3.org/1999/xlink" x="0px" y="0px"
	 viewBox="0 0 744 200" style="enable-background:new 0 0 744 200;" xml:space="preserve">
<style type="text/css">
	.st0{fill:#FFCA4F;}
	.st1{fill:#EC4B53;}
	.st2{fill:#FFFFFF;}
	.st3{fill:#20D0C2;}
	.st4{fill:#F0B97D;}
	.st5{fill:#ECF0F1;}
	.st6{fill:#FF5B61;}
	.st7{fill:#666666;}
	.st8{fill:#807D7D;}
	.st9{fill:#FED198;}
	.st10{fill:#414141;}
</style>
<g>
	<path class="st0" d="M100,200c55.1,0,100-44.9,100-100S155.1,0,100,0C44.9,0,0,44.9,0,100S44.9,200,100,200z"/>
	<path class="st1" d="M103.4-0.1L91.7,69h16l11.4-67.4C114,0.6,108.7,0,103.4-0.1z"/>
	<path class="st2" d="M42.8,78H80v-5.4c0-4.7,3.9-8.6,8.6-8.6h23.6c4.3,0,7.8,3.5,7.8,7.8V78h37.2c4.3,0,7.8,3.5,7.8,7.8v69.4
		c0,4.3-3.5,7.8-7.8,7.8H42.8c-4.3,0-7.8-3.5-7.8-7.8V85.8C35,81.5,38.5,78,42.8,78L42.8,78z M87,78h26v-6c0-2.5-2.3-3-5.1-3H92.1
		c-2.8,0-5.1,0.5-5.1,3L87,78C87,78,87,78,87,78z"/>
	<path class="st3" d="M48.1,83h104.7c3.9,0,7.1,3.1,7.1,6.9v61.3c0,3.8-3.2,6.9-7.1,6.9H48.1c-3.9,0-7.1-3.1-7.1-6.9V89.9
		C41,86.1,44.2,83,48.1,83z"/>
	<path class="st4" d="M67.8,116h8.4l0.7,7l1.2,1l2.5,1.6L72,145.9l-8.6-20.3l2.5-1.6l1.2-1L67.8,116L67.8,116z"/>
	<path class="st5" d="M65.1,124l-6.8,2.2L71.9,145l11.6-19.5l-4.8-1.5l-4.2,3h-5.1L65.1,124L65.1,124L65.1,124z"/>
	<path class="st6" d="M70.4,127l0.6,1.5l-1.3,16.6l2.3,1.7l2.3-1.7l-1.3-16.6l0.6-1.5l-1.5-0.1L70.4,127L70.4,127L70.4,127z"/>
	<path class="st7" d="M65.2,124l-12.2,3.9c0,0-1.6,0.8-2.1,3.3c-0.5,2.4-0.7,4.9-1.1,8.2c5.8,5.4,13.6,8.6,22.2,8.6
		c8.6,0,16.3-3.3,22.2-8.6c-0.4-3.3-0.6-5.8-1.1-8.2c-0.5-2.5-2.1-3.3-2.1-3.3l-12.2-3.9L72,144.3L65.2,124L65.2,124L65.2,124z"/>
	<path class="st8" d="M65.2,124.3l-2.6,0.8l-0.5,6.7c0,0,0.1,0.6,0.6,0.5l2.4,0.9c-0.1,0.1-0.1,0.3,0,0.4l-2,1.4l7,13.3
		c0.7,0,1.3,0.1,2,0.1s1.3,0,2-0.1l7-13.3l-2-1.4c-0.1-0.2,0-0.4,0-0.4l2.4-0.9c0.4,0.1,0.6-0.5,0.6-0.5l-0.5-6.7l-2.6-0.8L72,144.5
		L65.2,124.3L65.2,124.3L65.2,124.3z"/>
	<path class="st9" d="M62.2,101c0,0.7-0.2,1.3-0.2,1.9c-2.2-0.4-1.2,6.2,0.1,7.1c0.1,0.1,0.3-0.1,0.6-0.2c0.4,2.4,4.2,9,6.6,11.7
		c0.7,0.8,4.7,0.8,5.4,0c2.4-2.7,6.2-9.3,6.6-11.8c0.2,0.1,0.5,0.3,0.6,0.2c1.3-0.9,2.3-7.6,0.1-7.1c0-0.6-0.2-1.3-0.2-1.9
		c-0.1-5.2-4.8-7.7-9.7-7.8C67,93.3,62.4,95.8,62.2,101C62.2,101,62.2,101,62.2,101z"/>
	<path class="st7" d="M65,94.8c-0.7-0.1-3.3,0.7-3.6,3.4c-0.3,2.7-0.2,5.2-0.2,5.2s1.5,0.4,1.7,1.9c0.2,1.5,0.1,1.5,0.1,1.5l0.5-0.1
		l0.4-2.6c2.2-1.4,0-3.5,2.2-4c6,4.3,11.4,3.6,13.8,1.5c0,0-0.6,2.1-0.1,2.9c0.4,0.8,0.2,1.9,0.2,1.9l0.6,0c0,0-0.1-3.1,1.1-3.1
		C86.4,95.6,71.4,85.9,65,94.8L65,94.8L65,94.8z"/>
	<path class="st2" d="M67.1,122c0.2,0-2,2.5-2,2.5l1.9,6.5l5.1-3.8C69.2,125.8,67.5,124.1,67.1,122L67.1,122L67.1,122z M76.9,121.8
		c-0.2,0,2,2.5,2,2.5l-1.9,6.5L72,127C74.7,125.6,76.4,123.9,76.9,121.8L76.9,121.8z M100,94h52v3h-52V94z M121,147h31v3h-31
		L121,147L121,147z M100,114h30v3h-30V114z M100,107h52v3h-52V107z M100,101h52v3h-52V101z"/>
	<path class="st6" d="M96.3-0.1L108,69H92L80.6,1.7C85.8,0.7,91,0.1,96.3-0.1L96.3-0.1z"/>
	<g>
		<path class="st10" d="M235,68v67h-9V68H235z"/>
		<path class="st10" d="M291,65v58.1c0,4.1,0.1,8.8,0.4,11.9h-7.5l-0.4-8h-0.6c-2.6,5.3-8.4,9.3-16.2,9.3
			c-11.5,0-20.3-9.7-20.3-24.1c-0.1-15.8,9.7-25.5,21.2-25.5c7.2,0,12.1,3.4,14.3,7.2h0V65H291z M282,106.6c0-1.1-0.1-2.6-0.4-3.7
			c-1.3-5.5-6-10.1-12.5-10.1c-9,0-14.3,7.9-14.3,18.5c0,9.7,4.7,17.7,14.1,17.7c5.8,0,11.2-3.9,12.7-10.4c0.3-1.2,0.4-2.4,0.4-3.8
			V106.6z"/>
		<path class="st10" d="M310.3,113c0.2,11.8,7.7,16.6,16.4,16.6c6.2,0,10-1.1,13.2-2.5l1.5,6.2c-3.1,1.4-8.3,3-15.9,3
			c-14.7,0-23.5-9.7-23.5-24.1s8.5-25.8,22.4-25.8c15.6,0,19.8,13.7,19.8,22.5c0,1.8-0.2,3.2-0.3,4.1H310.3z M335.8,106
			c0.1-5.5-2.3-14.1-12.1-14.1c-8.8,0-12.6,8.1-13.3,14.1H335.8z"/>
		<path class="st10" d="M355,100c0-5-0.1-9-0.4-13h7.7l0.5,8h0.5c2.4-4.6,7.9-9,15.8-9c6.6,0,16.9,4,16.9,20.4V135h-9v-27.6
			c0-7.7-2.8-14.1-10.9-14.1c-5.7,0-10,4.1-11.5,8.9c-0.4,1.1-0.6,2.6-0.6,4.1V135h-9V100z"/>
		<path class="st10" d="M420,73.3V87h12v7h-12v25.8c0,5.9,1.6,9.3,6.1,9.3c2.1,0,3.7-0.3,4.7-0.6l0.4,6.5c-1.6,0.7-4.1,1.2-7.3,1.2
			c-3.8,0-6.9-1.3-8.8-3.7c-2.3-2.6-3.2-6.8-3.2-12.4V94h-8v-7h8V75.5L420,73.3z"/>
		<path class="st10" d="M451.8,73.7c0.1,3-2.1,5.3-5.5,5.3c-3.1,0-5.2-2.4-5.2-5.3c0-3.1,2.3-5.4,5.4-5.4
			C449.7,68.3,451.8,70.7,451.8,73.7z M442,135V87h9v48H442z"/>
		<path class="st10" d="M475,73.3V87h13v7h-13v25.8c0,5.9,1.6,9.3,6.1,9.3c2.1,0,3.7-0.3,4.7-0.6l0.4,6.5c-1.6,0.7-4.1,1.2-7.3,1.2
			c-3.8,0-6.9-1.3-8.8-3.7c-2.3-2.6-3.2-6.8-3.2-12.4V94h-7v-7h7V75.5L475,73.3z"/>
		<path class="st10" d="M502,87l10.5,28.2c1.1,3.2,2.3,6.9,3.1,9.8h0.2c0.9-2.9,1.9-6.5,3.1-10l9.5-28h9.2l-13,34.1
			c-6.2,16.4-10.5,24.8-16.4,29.9c-4.2,3.8-8.5,5.2-10.7,5.6l-2.2-7.3c2.2-0.7,5-2.1,7.6-4.2c2.4-1.9,5.3-5.2,7.3-9.7
			c0.4-0.9,0.7-1.6,0.7-2.1c0-0.5-0.2-1.2-0.6-2.3l-17.7-44H502z"/>
		<path class="st10" d="M600.4,133.2c-2.3,1.2-7.3,2.8-13.7,2.8c-14.4,0-23.8-9.8-23.8-24.4c0-14.7,10.1-25.4,25.7-25.4
			c5.1,0,9.7,1.3,12.1,2.5l-2,6.7c-2.1-1.2-5.3-2.3-10.1-2.3c-11,0-16.9,8.1-16.9,18.1c0,11.1,7.1,17.9,16.6,17.9
			c4.9,0,8.2-1.3,10.7-2.4L600.4,133.2z"/>
		<path class="st10" d="M636.6,135l-0.7-6h-0.3c-2.8,3.7-8.2,7.1-15.3,7.1c-10.1,0-15.3-6.8-15.3-13.7c0-11.5,10.8-17.8,30.1-17.7
			v-1c0-3.9-1.1-11-11.4-11c-4.7,0-9.5,1.4-13,3.5l-2.1-5.7c4.1-2.6,10.1-4.2,16.4-4.2c15.3,0,19,9.9,19,19.5v17.8
			c0,4.1,0.2,8.2,0.8,11.4H636.6z M636,110.6c-9.5-0.2-20.3,1.5-20.3,10.8c0,5.6,3.8,8.3,8.2,8.3c6.2,0,10.2-4,11.6-8
			c0.3-0.9,0.5-1.9,0.5-2.8V110.6z"/>
		<path class="st10" d="M658,102c0-5.7-0.1-10.5-0.4-15h8l0.3,9h0.4c2.2-6.2,7.4-10,13.2-10c1,0,1.7,0.1,2.5,0.3v7.9
			c-0.9-0.2-1.8-0.3-3-0.3c-6.1,0-10.5,4.5-11.6,10.7c-0.2,1.1-0.4,2.5-0.4,3.9V135h-9V102z"/>
		<path class="st10" d="M731,65v58.1c0,4.1,0.1,8.8,0.4,11.9h-7.5l-0.4-8h-0.9c-2.6,5.3-8.4,9.3-16.2,9.3
			c-11.5,0-20.3-9.7-20.3-24.1c-0.1-15.8,9.7-25.5,21.2-25.5c7.2,0,12.1,3.4,14.3,7.2h0.3V65H731z M722,106.6c0-1.1-0.1-2.6-0.4-3.7
			c-1.3-5.5-6-10.1-12.5-10.1c-9,0-14.3,7.9-14.3,18.5c0,9.7,4.7,17.7,14.1,17.7c5.8,0,11.2-3.9,12.7-10.4c0.3-1.2,0.4-2.4,0.4-3.8
			V106.6z"/>
	</g>
</g>
</svg>
