<svg id="Layer_1" data-name="Layer 1" xmlns="http://www.w3.org/2000/svg" viewBox="0 0 544.91 200"><defs><style>.cls-1{fill:#ffca4f;}.cls-2{fill:#ec4b53;}.cls-3{fill:#fff;}.cls-4{fill:#20d0c2;}.cls-5{fill:#f0b97d;}.cls-6{fill:#ecf0f1;}.cls-7{fill:#ff5b61;}.cls-8{fill:#666;}.cls-9{fill:#807d7d;}.cls-10{fill:#fed198;}</style></defs><title>id-card</title><path class="cls-1" d="M100,200A100,100,0,1,0,0,100,100.19,100.19,0,0,0,100,200Z"/><path class="cls-2" d="M103.42.07,91.69,69.21h16L119.15,1.84A99,99,0,0,0,103.42.07Z"/><path class="cls-3" d="M42.86,77.6H80V72.52c0-4.31,3.53-8.62,7.84-8.62h24.27c4.3,0,7.83,4.31,7.83,8.62V77.6h37.17A7.83,7.83,0,0,1,165,85.4v69.77a7.83,7.83,0,0,1-7.81,7.8H42.85a7.82,7.82,0,0,1-7.8-7.8V85.4a7.82,7.82,0,0,1,7.8-7.8Zm44.06,0h26.16V71.74c0-2.41-2.31-2.92-5.13-2.92H92.05c-2.82,0-5.13.51-5.13,2.92V77.6Z"/><path class="cls-4" d="M47.6,82.88H152.4a7,7,0,0,1,7.16,6.84v61.13a7,7,0,0,1-7.16,6.84H47.6a7,7,0,0,1-7.16-6.84V89.72A7,7,0,0,1,47.6,82.88Z"/><path class="cls-5" d="M67.79,115.78h8.35l.67,7,1.21,1,2.53,1.61L72,145.68l-8.59-20.29,2.54-1.61,1.2-1,.68-7Z"/><path class="cls-6" d="M65,124.3l-6.92,2.21L72,145.68l11.79-19.81-4.89-1.55-4.31,3H69.39L65,124.3Z"/><path class="cls-7" d="M70.42,127.08l.59,1.46-1.32,16.63L72,146.91l2.27-1.74-1.31-16.63.59-1.46L72,127l-1.54.06Z"/><path class="cls-8" d="M65.15,124.26l-12.24,3.91a4.68,4.68,0,0,0-2.07,3.33c-.45,2.4-.69,4.85-1.05,8.16a32.8,32.8,0,0,0,44.35,0c-.36-3.31-.6-5.76-1.06-8.16A4.72,4.72,0,0,0,91,128.17l-12.16-3.85L72,144.54l-6.81-20.28Z"/><path class="cls-9" d="M65.15,124.26l-2.64.85-.51,6.7s.14.55.56.5l2.38.9a.27.27,0,0,0,0,.35l-2,1.4,7,13.28c.66,0,1.32,0,2,0s1.34,0,2,0L81,135l-2-1.4a.28.28,0,0,1,0-.35l2.39-.9c.42.05.55-.5.55-.5l-.5-6.68-2.56-.81L72,144.54l-6.81-20.28Z"/><path class="cls-10" d="M62.24,101.47c0,.65-.24,1.29-.22,1.92-2.24-.42-1.16,6.23.11,7.14.1.08.34-.09.55-.22.44,2.45,4.19,9,6.57,11.73.66.76,4.71.75,5.37,0,2.44-2.69,6.18-9.3,6.62-11.76.21.14.46.3.56.22,1.27-.91,2.35-7.56.11-7.14,0-.63-.22-1.27-.22-1.92-.12-5.17-4.8-7.74-9.73-7.76s-9.6,2.59-9.72,7.76Z"/><path class="cls-8" d="M65.24,94.85a3.79,3.79,0,0,0-3.56,3.4,33.51,33.51,0,0,0-.16,5.18,2.33,2.33,0,0,1,1.68,1.9c.19,1.54,0,1.54,0,1.54l.54-.13.39-2.62c2.23-1.4,0-3.47,2.22-4,6,4.3,11.36,3.57,13.76,1.54,0,0-.56,2.12-.13,2.87a3.28,3.28,0,0,1,.17,2l.56,0s-.1-3.12,1.15-3.1c4.73-7.82-10.26-17.53-16.67-8.54Z"/><path class="cls-3" d="M67.05,121.81a24,24,0,0,1-2,2.52l1.89,6.46L72,127c-2.78-1.37-4.45-3.14-4.91-5.21Zm9.82,0a25.47,25.47,0,0,0,2,2.52L77,130.79,72,127c2.79-1.37,4.45-3.14,4.91-5.21ZM100,94.06h51.86V97H100Zm21,52.62h30.87v2.82H121v-2.82Zm-21-32.39h29.54v2.89H100Zm0-6.74h51.86v2.89H100Zm0-6.74h51.86v2.88H100Z"/><path class="cls-7" d="M96.29.08,108,69.21H92L80.57,1.9A100,100,0,0,1,96.29.08Z"/><path class="cls-4" d="M229.36,66.63v69.05h-5.9V66.63Z"/><path class="cls-4" d="M268.91,66.63c10.74,0,18.86,3.19,24.28,9.67,4.93,5.81,7.44,14.12,7.44,24.86,0,10.54-2.8,18.86-8.31,25q-8.7,9.57-24.66,9.57H244.35V66.63Zm-18.66,63.83h16.54c9.18,0,16.24-2.61,21.08-7.83q7-7.55,7-21.47c0-9.67-2-16.83-6.09-21.57-4.45-5.22-11.41-7.74-20.7-7.74H250.25Z"/><path class="cls-4" d="M392.6,71.27A23.17,23.17,0,0,1,402,87.52h-5.7a18.06,18.06,0,0,0-7.84-12.47,25.13,25.13,0,0,0-14.7-4.36c-8.51,0-15.08,3-19.92,9-4.54,5.61-6.77,12.86-6.77,21.76s2.23,16.15,6.67,21.56c4.65,5.71,11.13,8.61,19.44,8.61a25.1,25.1,0,0,0,15.19-4.74c4.54-3.48,7.54-8.41,8.89-14.79H403c-1.45,7.93-5,14.21-10.83,18.76A30.28,30.28,0,0,1,373.26,137c-10.35,0-18.38-3.58-24.18-10.64-5.32-6.48-7.93-14.8-7.93-25s2.71-18.57,8.13-25.24c5.89-7.35,14.12-10.93,24.56-10.93C381.09,65.28,387.38,67.21,392.6,71.27Z"/><path class="cls-4" d="M450,90c2.9,3.19,4.45,7.64,4.45,13.44v32.2h-5.52v-9.57a25.58,25.58,0,0,1-8,7.35A26.13,26.13,0,0,1,427.7,137c-4.83,0-8.8-1.26-11.7-3.68a12.1,12.1,0,0,1-4.74-10c0-5.8,2.32-10.06,7.06-12.76,4.06-2.62,10-4,17.51-4l12.76-.19v-3q0-14.22-14.5-14.22c-4.07,0-7.35.78-10,2.52a12.09,12.09,0,0,0-5.51,7.93l-5.7-.39a16.42,16.42,0,0,1,7.54-11.41c3.58-2.42,8.22-3.58,13.93-3.58C441.34,84.33,446.56,86.17,450,90Zm-13.83,21.18c-12.67.09-19,4.15-19,12.08a7.77,7.77,0,0,0,3.19,6.48,13.67,13.67,0,0,0,8.51,2.52,20.69,20.69,0,0,0,13.74-5.22c4-3.29,6-7,6-10.83V111Z"/><path class="cls-4" d="M494.82,85.39v5.9a26.61,26.61,0,0,0-7.64-1.06,12.41,12.41,0,0,0-10.83,6,21.3,21.3,0,0,0-4,13v26.4h-5.8v-50h5.8v9.58a19,19,0,0,1,5.51-7.45,14.51,14.51,0,0,1,9.67-3.48A19.91,19.91,0,0,1,494.82,85.39Z"/><path class="cls-4" d="M544.91,65.28v70.4H539.4v-9.86c-3.48,7.45-9.29,11.22-17.51,11.22-7.25,0-12.86-2.71-16.92-7.93-3.68-4.84-5.51-11-5.51-18.47s1.83-13.45,5.51-18.28c4.06-5.42,9.57-8,16.63-8,7.93,0,13.83,4,17.51,11.9V65.28Zm-35.4,30.37c-2.8,3.67-4.15,8.7-4.15,15s1.35,11.31,4.06,15.08q4.5,6.39,13.05,6.39a15,15,0,0,0,12.67-6.19c2.71-3.78,4.16-8.61,4.16-14.51v-1.16c0-6.19-1.55-11.12-4.45-15a14.5,14.5,0,0,0-12.18-6C517,89.26,512.61,91.39,509.51,95.65Z"/></svg>