<?xml version="1.0" encoding="utf-8"?>
<!-- Generator: Adobe Illustrator 22.0.0, SVG Export Plug-In . SVG Version: 6.00 Build 0)  -->
<svg version="1.1" id="Layer_1" xmlns="http://www.w3.org/2000/svg" xmlns:xlink="http://www.w3.org/1999/xlink" x="0px" y="0px"
	 viewBox="0 0 558 200" style="enable-background:new 0 0 558 200;" xml:space="preserve">
<style type="text/css">
	.st0{fill:#FFCA4F;}
	.st1{fill:#EC4B53;}
	.st2{fill:#FFFFFF;}
	.st3{fill:#20D0C2;}
	.st4{fill:#F0B97D;}
	.st5{fill:#ECF0F1;}
	.st6{fill:#FF5B61;}
	.st7{fill:#666666;}
	.st8{fill:#807D7D;}
	.st9{fill:#FED198;}
</style>
<path class="st0" d="M100,200c55.1,0,100-44.9,100-100S155.1,0,100,0C44.9,0,0,44.9,0,100S44.9,200,100,200z"/>
<path class="st1" d="M103.4,0.1L91.7,69.2h16l11.4-67.4C114,0.8,108.7,0.2,103.4,0.1z"/>
<path class="st2" d="M42.9,77.6H80v-5.1c0-4.3,3.5-8.6,7.8-8.6h24.3c4.3,0,7.8,4.3,7.8,8.6v5.1h37.2c4.3,0,7.8,3.5,7.8,7.8v69.8
	c0,4.3-3.5,7.8-7.8,7.8H42.9c-4.3,0-7.8-3.5-7.8-7.8V85.4C35.1,81.1,38.6,77.6,42.9,77.6C42.9,77.6,42.9,77.6,42.9,77.6z M86.9,77.6
	h26.2v-5.9c0-2.4-2.3-2.9-5.1-2.9H92c-2.8,0-5.1,0.5-5.1,2.9L86.9,77.6C86.9,77.6,86.9,77.6,86.9,77.6z"/>
<path class="st3" d="M47.6,82.9h104.8c3.9,0,7.2,3.1,7.2,6.8v61.1c0,3.8-3.2,6.8-7.2,6.8H47.6c-3.9,0-7.2-3.1-7.2-6.8V89.7
	C40.4,86,43.7,82.9,47.6,82.9z"/>
<path class="st4" d="M67.8,115.8h8.4l0.7,7l1.2,1l2.5,1.6L72,145.7l-8.6-20.3l2.5-1.6l1.2-1L67.8,115.8L67.8,115.8z"/>
<path class="st5" d="M65,124.3l-6.9,2.2L72,145.7l11.8-19.8l-4.9-1.6l-4.3,3h-5.2L65,124.3L65,124.3L65,124.3z"/>
<path class="st6" d="M70.4,127.1l0.6,1.5l-1.3,16.6l2.3,1.7l2.3-1.7l-1.3-16.6l0.6-1.5L72,127L70.4,127.1L70.4,127.1L70.4,127.1z"/>
<path class="st7" d="M65.2,124.3l-12.2,3.9c0,0-1.6,0.8-2.1,3.3c-0.5,2.4-0.7,4.9-1.1,8.2c5.8,5.4,13.6,8.6,22.2,8.6
	c8.6,0,16.3-3.3,22.2-8.6c-0.4-3.3-0.6-5.8-1.1-8.2c-0.5-2.5-2.1-3.3-2.1-3.3l-12.2-3.9L72,144.5L65.2,124.3L65.2,124.3L65.2,124.3z
	"/>
<path class="st8" d="M65.2,124.3l-2.6,0.8l-0.5,6.7c0,0,0.1,0.6,0.6,0.5l2.4,0.9c-0.1,0.1-0.1,0.3,0,0.4l-2,1.4l7,13.3
	c0.7,0,1.3,0.1,2,0.1s1.3,0,2-0.1l7-13.3l-2-1.4c-0.1-0.2,0-0.4,0-0.4l2.4-0.9c0.4,0.1,0.6-0.5,0.6-0.5l-0.5-6.7l-2.6-0.8L72,144.5
	L65.2,124.3L65.2,124.3L65.2,124.3z"/>
<path class="st9" d="M62.2,101.5c0,0.7-0.2,1.3-0.2,1.9c-2.2-0.4-1.2,6.2,0.1,7.1c0.1,0.1,0.3-0.1,0.6-0.2c0.4,2.4,4.2,9,6.6,11.7
	c0.7,0.8,4.7,0.8,5.4,0c2.4-2.7,6.2-9.3,6.6-11.8c0.2,0.1,0.5,0.3,0.6,0.2c1.3-0.9,2.3-7.6,0.1-7.1c0-0.6-0.2-1.3-0.2-1.9
	c-0.1-5.2-4.8-7.7-9.7-7.8C67,93.7,62.4,96.3,62.2,101.5C62.2,101.5,62.2,101.5,62.2,101.5z"/>
<path class="st7" d="M65.2,94.8c-0.7-0.1-3.3,0.7-3.6,3.4c-0.3,2.7-0.2,5.2-0.2,5.2s1.5,0.4,1.7,1.9c0.2,1.5,0.1,1.5,0.1,1.5
	l0.5-0.1l0.4-2.6c2.2-1.4,0-3.5,2.2-4c6,4.3,11.4,3.6,13.8,1.5c0,0-0.6,2.1-0.1,2.9c0.4,0.8,0.2,1.9,0.2,1.9l0.6,0
	c0,0-0.1-3.1,1.1-3.1C86.6,95.6,71.7,85.9,65.2,94.8L65.2,94.8L65.2,94.8z"/>
<path class="st2" d="M67.1,121.8c0.2,0-2,2.5-2,2.5l1.9,6.5L72,127C69.2,125.6,67.5,123.9,67.1,121.8L67.1,121.8L67.1,121.8z
	 M76.9,121.8c-0.2,0,2,2.5,2,2.5l-1.9,6.5L72,127C74.7,125.6,76.4,123.9,76.9,121.8L76.9,121.8z M100,94.1h51.9V97H100V94.1z
	 M121,146.7h30.9v2.8H121L121,146.7L121,146.7z M100,114.3h29.5v2.9H100V114.3z M100,107.6h51.9v2.9H100V107.6z M100,100.8h51.9v2.9
	H100V100.8z"/>
<path class="st6" d="M96.3,0.1L108,69.2H92L80.6,1.9C85.8,0.9,91,0.3,96.3,0.1L96.3,0.1z"/>
<g>
	<path class="st3" d="M229.4,66.6v69.1h-5.9V66.6H229.4z"/>
	<path class="st3" d="M268.9,66.6c10.7,0,18.9,3.2,24.3,9.7c4.9,5.8,7.4,14.1,7.4,24.9c0,10.5-2.8,18.9-8.3,25
		c-5.8,6.4-14,9.6-24.7,9.6h-23.3V66.6H268.9z M250.2,130.5h16.5c9.2,0,16.2-2.6,21.1-7.8c4.6-5,7-12.2,7-21.5
		c0-9.7-2-16.8-6.1-21.6c-4.4-5.2-11.4-7.7-20.7-7.7h-17.8V130.5z"/>
	<path class="st3" d="M392.6,71.3c5.4,4.1,8.5,9.5,9.4,16.2h-5.7c-0.9-5.3-3.5-9.5-7.8-12.5c-4.2-2.9-9.1-4.4-14.7-4.4
		c-8.5,0-15.1,3-19.9,9c-4.5,5.6-6.8,12.9-6.8,21.8s2.2,16.2,6.7,21.6c4.6,5.7,11.1,8.6,19.4,8.6c5.9,0,10.9-1.6,15.2-4.7
		c4.5-3.5,7.5-8.4,8.9-14.8h5.7c-1.5,7.9-5,14.2-10.8,18.8c-5.3,4.1-11.6,6.2-18.9,6.2c-10.3,0-18.4-3.6-24.2-10.6
		c-5.3-6.5-7.9-14.8-7.9-25c0-10.2,2.7-18.6,8.1-25.2c5.9-7.4,14.1-10.9,24.6-10.9C381.1,65.3,387.4,67.2,392.6,71.3z"/>
	<path class="st3" d="M449.9,90c2.9,3.2,4.4,7.6,4.4,13.4v32.2h-5.5v-9.6c-2,2.9-4.7,5.4-8,7.3c-4.1,2.3-8.4,3.6-13.2,3.6
		c-4.8,0-8.8-1.3-11.7-3.7c-3.2-2.5-4.7-5.9-4.7-10c0-5.8,2.3-10.1,7.1-12.8c4.1-2.6,10-4,17.5-4l12.8-0.2v-3
		c0-9.5-4.8-14.2-14.5-14.2c-4.1,0-7.4,0.8-10,2.5c-2.9,1.8-4.7,4.4-5.5,7.9l-5.7-0.4c1-5,3.5-8.9,7.5-11.4
		c3.6-2.4,8.2-3.6,13.9-3.6C441.3,84.3,446.6,86.2,449.9,90z M436.1,111.2c-12.7,0.1-19,4.2-19,12.1c0,2.7,1.1,4.8,3.2,6.5
		c2.1,1.6,5,2.5,8.5,2.5c5,0,9.7-1.7,13.7-5.2c4-3.3,6-7,6-10.8V111L436.1,111.2z"/>
	<path class="st3" d="M494.8,85.4v5.9c-2.6-0.8-5.1-1.1-7.6-1.1c-4.4,0-8.1,1.9-10.8,6c-2.7,3.7-4,8-4,13.1v26.4h-5.8v-50h5.8v9.6
		c1.4-3.1,3.2-5.6,5.5-7.4c2.7-2.3,6-3.5,9.7-3.5C490.5,84.3,492.9,84.6,494.8,85.4z"/>
	<path class="st3" d="M544.9,65.3v70.4h-5.5v-9.9c-3.5,7.4-9.3,11.2-17.5,11.2c-7.3,0-12.9-2.7-16.9-7.9c-3.7-4.8-5.5-11-5.5-18.5
		c0-7.4,1.8-13.4,5.5-18.3c4.1-5.4,9.6-8,16.6-8c7.9,0,13.8,4,17.5,11.9V65.3H544.9z M509.5,95.6c-2.8,3.7-4.2,8.7-4.2,15
		s1.4,11.3,4.1,15.1c3,4.3,7.3,6.4,13.1,6.4c5.4,0,9.7-2.1,12.7-6.2c2.7-3.8,4.2-8.6,4.2-14.5v-1.2c0-6.2-1.5-11.1-4.4-15
		c-3.1-4.1-7.2-6-12.2-6C517,89.3,512.6,91.4,509.5,95.6z"/>
</g>
</svg>
