<svg height="72" xmlns="http://www.w3.org/2000/svg" viewBox="0 0 984 200">
<g>
	<path fill="#FFCA4F" d="M100,200c55.1,0,100-44.9,100-100S155.1,0,100,0C44.9,0,0,44.9,0,100S44.9,200,100,200z"/>
	<path fill="#EC4B53" d="M103.4-0.1L91.7,69h16l11.4-67.4C114,0.6,108.7,0,103.4-0.1z"/>
	<path fill="#FFFFFF" d="M42.8,78H80v-5.4c0-4.7,3.9-8.6,8.6-8.6h23.6c4.3,0,7.8,3.5,7.8,7.8V78h37.2c4.3,0,7.8,3.5,7.8,7.8v69.4
		c0,4.3-3.5,7.8-7.8,7.8H42.8c-4.3,0-7.8-3.5-7.8-7.8V85.8C35,81.5,38.5,78,42.8,78L42.8,78z M87,78h26v-6c0-2.5-2.3-3-5.1-3H92.1
		c-2.8,0-5.1,0.5-5.1,3L87,78C87,78,87,78,87,78z"/>
	<path fill="#20D0C2" d="M48.1,83h104.7c3.9,0,7.1,3.1,7.1,6.9v61.3c0,3.8-3.2,6.9-7.1,6.9H48.1c-3.9,0-7.1-3.1-7.1-6.9V89.9
		C41,86.1,44.2,83,48.1,83z"/>
	<path fill="#F0B97D" d="M67.8,116h8.4l0.7,7l1.2,1l2.5,1.6L72,145.9l-8.6-20.3l2.5-1.6l1.2-1L67.8,116L67.8,116z"/>
	<path fill="#ECF0F1" d="M65.1,124l-6.8,2.2L71.9,145l11.6-19.5l-4.8-1.5l-4.2,3h-5.1L65.1,124L65.1,124L65.1,124z"/>
	<path fill="#FF5B61" d="M70.4,127l0.6,1.5l-1.3,16.6l2.3,1.7l2.3-1.7l-1.3-16.6l0.6-1.5l-1.5-0.1L70.4,127L70.4,127L70.4,127z"/>
	<path fill="#666666" d="M65.2,124l-12.2,3.9c0,0-1.6,0.8-2.1,3.3c-0.5,2.4-0.7,4.9-1.1,8.2c5.8,5.4,13.6,8.6,22.2,8.6
		c8.6,0,16.3-3.3,22.2-8.6c-0.4-3.3-0.6-5.8-1.1-8.2c-0.5-2.5-2.1-3.3-2.1-3.3l-12.2-3.9L72,144.3L65.2,124L65.2,124L65.2,124z"/>
	<path fill="#807D7D" d="M65.2,124.3l-2.6,0.8l-0.5,6.7c0,0,0.1,0.6,0.6,0.5l2.4,0.9c-0.1,0.1-0.1,0.3,0,0.4l-2,1.4l7,13.3
		c0.7,0,1.3,0.1,2,0.1s1.3,0,2-0.1l7-13.3l-2-1.4c-0.1-0.2,0-0.4,0-0.4l2.4-0.9c0.4,0.1,0.6-0.5,0.6-0.5l-0.5-6.7l-2.6-0.8L72,144.5
		L65.2,124.3L65.2,124.3L65.2,124.3z"/>
	<path fill="#FED198" d="M62.2,101c0,0.7-0.2,1.3-0.2,1.9c-2.2-0.4-1.2,6.2,0.1,7.1c0.1,0.1,0.3-0.1,0.6-0.2c0.4,2.4,4.2,9,6.6,11.7
		c0.7,0.8,4.7,0.8,5.4,0c2.4-2.7,6.2-9.3,6.6-11.8c0.2,0.1,0.5,0.3,0.6,0.2c1.3-0.9,2.3-7.6,0.1-7.1c0-0.6-0.2-1.3-0.2-1.9
		c-0.1-5.2-4.8-7.7-9.7-7.8C67,93.3,62.4,95.8,62.2,101C62.2,101,62.2,101,62.2,101z"/>
	<path fill="#666666" d="M65,94.8c-0.7-0.1-3.3,0.7-3.6,3.4c-0.3,2.7-0.2,5.2-0.2,5.2s1.5,0.4,1.7,1.9c0.2,1.5,0.1,1.5,0.1,1.5l0.5-0.1
		l0.4-2.6c2.2-1.4,0-3.5,2.2-4c6,4.3,11.4,3.6,13.8,1.5c0,0-0.6,2.1-0.1,2.9c0.4,0.8,0.2,1.9,0.2,1.9l0.6,0c0,0-0.1-3.1,1.1-3.1
		C86.4,95.6,71.4,85.9,65,94.8L65,94.8L65,94.8z"/>
	<path fill="#FFFFFF" d="M67.1,122c0.2,0-2,2.5-2,2.5l1.9,6.5l5.1-3.8C69.2,125.8,67.5,124.1,67.1,122L67.1,122L67.1,122z M76.9,121.8
		c-0.2,0,2,2.5,2,2.5l-1.9,6.5L72,127C74.7,125.6,76.4,123.9,76.9,121.8L76.9,121.8z M100,94h52v3h-52V94z M121,147h31v3h-31
		L121,147L121,147z M100,114h30v3h-30V114z M100,107h52v3h-52V107z M100,101h52v3h-52V101z"/>
	<path fill="#FF5B61" d="M96.3-0.1L108,69H92L80.6,1.7C85.8,0.7,91,0.1,96.3-0.1L96.3-0.1z"/>
	<g>
		<path fill="#20D0C0" d="M236.9,45v100.3h-13.5V45H236.9z"/>
		<path fill="#20D0C0" d="M320.7,40.5v86.9c0,6.1,0.1,13.1,0.6,17.8H310l-0.6-12h-0.9c-4,7.9-12.6,13.9-24.2,13.9
			c-17.1,0-30.3-14.5-30.3-36C253.9,87.5,268.5,73,285.8,73c10.8,0,18.2,5.1,21.4,10.8h0V40.5H320.7z M307.3,102.8
			c0-1.6-0.1-3.8-0.6-5.5c-1.9-8.3-9-15.1-18.8-15.1c-13.5,0-21.4,11.8-21.4,27.6c0,14.5,7.1,26.5,21.1,26.5
			c8.7,0,16.7-5.8,19.1-15.5c0.4-1.8,0.6-3.5,0.6-5.6V102.8z"/>
		<path fill="#20D0C0" d="M349.6,112.3c0.3,17.6,11.5,24.8,24.5,24.8c9.3,0,14.9-1.6,19.8-3.7l2.2,9.3c-4.6,2.1-12.4,4.4-23.8,4.4
			c-22,0-35.2-14.5-35.2-36.1s12.7-38.6,33.6-38.6c23.4,0,29.6,20.6,29.6,33.7c0,2.7-0.3,4.7-0.4,6.1H349.6z M387.7,101.8
			c0.1-8.3-3.4-21.1-18-21.1c-13.2,0-18.9,12.1-20,21.1H387.7z"/>
		<path fill="#20D0C0" d="M416.5,92.8c0-7.4-0.2-13.5-0.6-19.4h11.5l0.7,12h0.7c3.6-6.8,11.9-13.5,23.7-13.5c9.9,0,25.3,5.9,25.3,30.5
			v42.8h-13.5V104c0-11.5-4.2-21.1-16.3-21.1c-8.5,0-15,6.1-17.2,13.3c-0.6,1.6-0.9,3.8-0.9,6.1v43h-13.5V92.8z"/>
		<path fill="#20D0C0" d="M513.8,52.8v20.6h18v10.5h-18v38.6c0,8.9,2.4,13.9,9.2,13.9c3.2,0,5.6-0.4,7.1-0.9l0.6,9.8
			c-2.4,1-6.1,1.8-10.9,1.8c-5.7,0-10.3-1.9-13.2-5.5c-3.5-3.8-4.7-10.2-4.7-18.6v-39h-12V73.4h12V56.2L513.8,52.8z"/>
		<path fill="#20D0C0" d="M561.3,53.5c0.1,4.4-3.1,8-8.3,8c-4.6,0-7.8-3.5-7.8-8c0-4.6,3.4-8.1,8.1-8.1
			C558.2,45.4,561.3,49,561.3,53.5z M546.7,145.2V73.4h13.5v71.8H546.7z"/>
		<path fill="#20D0C0" d="M596.1,52.8v20.6h19.5v10.5h-19.5v38.6c0,8.9,2.4,13.9,9.2,13.9c3.2,0,5.6-0.4,7.1-0.9l0.6,9.8
			c-2.4,1-6.1,1.8-10.9,1.8c-5.7,0-10.3-1.9-13.2-5.5c-3.5-3.8-4.7-10.2-4.7-18.6v-39h-10.5V73.4h10.5V56.2L596.1,52.8z"/>
		<path fill="#20D0C0" d="M636.4,73.4l15.7,42.2c1.6,4.7,3.4,10.3,4.6,14.6h0.3c1.3-4.3,2.8-9.7,4.6-14.9l14.2-41.9h13.7l-19.5,51
			c-9.3,24.5-15.7,37.1-24.5,44.8c-6.4,5.6-12.7,7.8-16,8.4l-3.2-10.9c3.2-1,7.5-3.1,11.4-6.4c3.5-2.8,8-7.8,10.9-14.5
			c0.6-1.3,1-2.4,1-3.1c0-0.7-0.3-1.8-0.9-3.4l-26.4-65.9H636.4z"/>
		<path fill="#20D0C0" d="M783.7,142.5c-3.4,1.8-10.9,4.1-20.6,4.1c-21.6,0-35.6-14.6-35.6-36.5c0-22,15.1-38,38.4-38
			c7.7,0,14.5,1.9,18,3.7l-3,10.1c-3.1-1.8-8-3.4-15.1-3.4c-16.4,0-25.3,12.1-25.3,27.1c0,16.6,10.6,26.8,24.8,26.8
			c7.4,0,12.3-1.9,16-3.5L783.7,142.5z"/>
		<path fill="#20D0C0" d="M837.8,145.2l-1.1-9h-0.5c-4.2,5.6-12.2,10.6-22.9,10.6c-15.2,0-22.9-10.2-22.9-20.5
			c0-17.2,16.1-26.6,45-26.5v-1.5c0-5.9-1.7-16.5-17-16.5c-7,0-14.2,2.1-19.5,5.3l-3.1-8.5c6.2-3.8,15.2-6.3,24.6-6.3
			c22.9,0,28.5,14.9,28.5,29.1v26.6c0,6.2,0.3,12.2,1.2,17.1H837.8z M837,108.7c-14.2-0.3-30.3,2.2-30.3,16.1
			c0,8.4,5.6,12.4,12.3,12.4c9.3,0,15.2-5.9,17.3-12c0.4-1.3,0.7-2.8,0.7-4.1V108.7z"/>
		<path fill="#20D0C0" d="M869.9,95.8c0-8.5-0.2-15.7-0.6-22.4h12l0.4,13.5h0.6c3.2-9.2,11.1-15,19.8-15c1.5,0,2.5,0.1,3.7,0.4V84
			c-1.3-0.3-2.7-0.4-4.4-0.4c-9.2,0-15.7,6.7-17.4,16c-0.3,1.7-0.6,3.7-0.6,5.8v39.8h-13.5V95.8z"/>
		<path fill="#20D0C0" d="M979.2,40.5v86.9c0,6.1,0.1,13.1,0.6,17.8h-11.3l-0.6-12h-1.3c-4,7.9-12.6,13.9-24.2,13.9
			c-17.1,0-30.3-14.5-30.3-36C912,87.5,926.6,73,943.9,73c10.8,0,18.2,5.1,21.4,10.8h0.4V40.5H979.2z M965.7,102.8
			c0-1.6-0.1-3.8-0.6-5.5c-1.9-8.3-9-15.1-18.8-15.1c-13.5,0-21.4,11.8-21.4,27.6c0,14.5,7.1,26.5,21.1,26.5
			c8.7,0,16.7-5.8,19.1-15.5c0.4-1.8,0.6-3.5,0.6-5.6V102.8z"/>
	</g>
</g>
</svg>
